<svg width="11" height="14" viewBox="0 0 11 14" fill="none" xmlns="http://www.w3.org/2000/svg">
<path d="M5.33333 6.66667C5.7 6.66667 6.014 6.53622 6.27533 6.27533C6.53667 6.01444 6.66711 5.70044 6.66667 5.33333C6.66622 4.96622 6.53578 4.65244 6.27533 4.392C6.01489 4.13156 5.70089 4.00089 5.33333 4C4.96578 3.99911 4.652 4.12978 4.392 4.392C4.132 4.65422 4.00133 4.968 4 5.33333C3.99867 5.69867 4.12933 6.01267 4.392 6.27533C4.65467 6.538 4.96844 6.66844 5.33333 6.66667ZM5.33333 13.3333C3.54444 11.8111 2.20844 10.3973 1.32533 9.092C0.442222 7.78667 0.000444444 6.57822 0 5.46667C0 3.8 0.536222 2.47222 1.60867 1.48333C2.68111 0.494444 3.92267 0 5.33333 0C6.744 0 7.98578 0.494444 9.05867 1.48333C10.1316 2.47222 10.6676 3.8 10.6667 5.46667C10.6667 6.57778 10.2251 7.78622 9.342 9.092C8.45889 10.3978 7.12267 11.8116 5.33333 13.3333Z" fill="black"/>
</svg>
